<?xml version="1.0" encoding="UTF-8"?>
<svg width="334px" height="120px" viewBox="0 0 334 120" version="1.1" xmlns="http://www.w3.org/2000/svg" xmlns:xlink="http://www.w3.org/1999/xlink">
    <!-- Generator: Sketch 59.1 (86144) - https://sketch.com -->
    <title>理赔-01 copy</title>
    <desc>Created with Sketch.</desc>
    <defs>
        <linearGradient x1="0%" y1="44.755997%" x2="95.8274148%" y2="55.0660815%" id="linearGradient-1">
            <stop stop-color="#F5B44A" offset="0%"></stop>
            <stop stop-color="#F7DB8E" offset="100%"></stop>
        </linearGradient>
        <path d="M8,0 L326,0 C330.418278,-8.11624501e-16 334,3.581722 334,8 L334,112 C334,116.418278 330.418278,120 326,120 L8,120 C3.581722,120 5.41083001e-16,116.418278 0,112 L0,8 C-5.41083001e-16,3.581722 3.581722,8.11624501e-16 8,0 Z" id="path-2"></path>
        <linearGradient x1="8.18860291%" y1="141.209645%" x2="59.5096788%" y2="0%" id="linearGradient-4">
            <stop stop-color="#FAE087" offset="0%"></stop>
            <stop stop-color="#F4BD4F" offset="100%"></stop>
        </linearGradient>
        <linearGradient x1="-60.0741621%" y1="11.6909076%" x2="100%" y2="44.1156585%" id="linearGradient-5">
            <stop stop-color="#FCF0CE" offset="0%"></stop>
            <stop stop-color="#F8DA92" offset="100%"></stop>
        </linearGradient>
        <path d="M50.9260894,17.7703096 C50.9260894,20.0139277 50.9495066,22.2694169 50.9260894,24.5130351 C50.8909636,27.4689129 50.5397053,30.4010488 49.439096,33.1551198 C48.6663278,35.1019631 47.6593874,36.9538384 46.4065662,38.6395197 C45.2357053,40.2064911 44.0063013,41.7378496 42.7300629,43.221724 C40.5639702,45.7502461 37.9997848,47.8039283 35.2599702,49.6439326 C33.0236258,51.139678 30.5765265,52.1249707 27.9420894,52.6235525 C26.0101689,52.9915533 24.089957,52.9678113 22.2048709,52.3861326 C21.1159702,52.0418737 20.0621954,51.5789049 19.0084205,51.115936 C16.7018245,50.0831594 14.6411093,48.65864 12.7208974,47.0085716 C11.6788311,46.1063759 10.6718907,45.1804383 9.66495033,44.2307586 C7.41689735,42.1177214 5.47326821,39.7435223 3.8223543,37.1319033 C2.21827483,34.6033813 1.04741391,31.8730523 0.590778146,28.8815614 C0.391731788,27.5876229 0.20439404,26.2818134 0.180976821,24.9878749 C0.0990165563,20.1088957 0.0287649007,15.2180455 0.087307947,10.3390664 C0.122433775,7.60873741 1.48063245,5.57879718 3.90431457,4.34421364 C6.66754636,2.94343617 9.60640728,2.04124051 12.6272285,1.38833576 C13.9971358,1.09156087 15.367043,0.79478598 16.7486589,0.557366069 C17.7438907,0.391172132 18.7625397,0.272462176 19.7811887,0.23684919 C22.3922086,0.13001023 24.9915199,0.0231712701 27.6025397,0.0350422657 C29.0661159,0.0469132612 30.5179834,0.260591181 31.969851,0.438656114 C33.3631755,0.616721047 34.7565,0.79478598 36.1381159,1.09156087 C38.081745,1.49517472 40.0253742,1.91065956 41.9104603,2.49233834 C43.6901689,3.03840414 45.4347517,3.71505088 47.1207914,4.49853659 C48.8536656,5.30576428 50.1064868,6.65905777 50.609957,8.58215905 C50.7621689,9.18757982 50.8909636,9.81674258 50.8909636,10.4340344 C50.9495066,12.8913304 50.9260894,15.3248845 50.9260894,17.7703096 Z" id="path-6"></path>
        <linearGradient x1="36.2021627%" y1="50%" x2="68.8787565%" y2="68.5496238%" id="linearGradient-8">
            <stop stop-color="#F1A243" offset="0%"></stop>
            <stop stop-color="#F3BB5A" offset="100%"></stop>
        </linearGradient>
        <path d="M8,0 L326,0 C330.418278,-8.11624501e-16 334,3.581722 334,8 L334,112 C334,116.418278 330.418278,120 326,120 L8,120 C3.581722,120 5.41083001e-16,116.418278 0,112 L0,8 C-5.41083001e-16,3.581722 3.581722,8.11624501e-16 8,0 Z" id="path-9"></path>
    </defs>
    <g id="页面1" stroke="none" stroke-width="1" fill="none" fill-rule="evenodd">
        <g id="书城改版" transform="translate(-386.000000, -306.000000)">
            <g id="理赔-01-copy" transform="translate(386.000000, 306.000000)">
                <mask id="mask-3" fill="white">
                    <use xlink:href="#path-2"></use>
                </mask>
                <use id="Mask" fill="url(#linearGradient-1)" fill-rule="nonzero" xlink:href="#path-2"></use>
                <g id="理赔-01" opacity="0.4" mask="url(#mask-3)">
                    <g transform="translate(266.000000, 45.000000)">
                        <g id="Group-3" transform="translate(45.500000, 38.000000) scale(-1, 1) translate(-45.500000, -38.000000) translate(10.000000, 0.000000)">
                            <path d="M69.0600627,4.94479359 C67.1201255,3.06659561 64.7359463,3.20928193 62.4742349,3.23167563 L51.0658963,3.23167563 C51.2321986,3.7691244 51.33198,4.35136057 51.33198,4.94479359 C51.33198,8.07991143 48.7930981,10.6327931 45.6998751,10.6327931 L25.2668645,10.6327931 C22.1625547,10.6327931 19.6347595,8.06871458 19.6347595,4.94479359 C19.6347595,4.35136057 19.7234541,3.7691244 19.9008432,3.23167563 L15.1445971,3.23167563 L8.4481574,3.24287248 C8.4481574,3.24287248 5.42145534,2.8845733 2.29497189,6.18764388 C2.29497189,6.18764388 0.89803248,7.06099813 0,11.3493915 L0,67.9046779 C0,67.9046779 0.487820112,75.0258741 8.03794503,76 L38.3493129,76 C38.3493129,76 29.1029044,68.5764888 27.2070581,58.6224897 C27.2070581,58.6224897 26.5861961,54.5356397 26.6527171,54.0877657 C26.6527171,54.0877657 26.5196752,43.0924596 26.5196752,42.5550108 C26.5196752,42.5550108 26.4864147,38.4233734 26.5418488,37.5948065 C26.5418488,37.5948065 26.3977202,33.9446336 29.4687695,31.7948385 C29.4687695,31.7948385 31.4754841,29.8689804 40.3782011,27.7639727 C40.3782011,27.7639727 44.8683635,26.77865 46.3983448,26.6442878 C46.3983448,26.6442878 55.7888819,25.96128 59.9020924,26.4987287 C59.9020924,26.4987287 66.8757027,27.1593428 71,28.5253585 L71,11.7972654 C70.9778264,11.7860686 71,6.82299158 69.0600627,4.94479359 Z" id="Shape" fill="url(#linearGradient-4)" fill-rule="nonzero"></path>
                            <path d="M45.6152728,6.44067797 L25.3845771,6.44067797 C24.6710691,6.44067797 24.0892857,4.99425452 24.0892857,3.22033898 C24.0892857,1.44642344 24.6710691,0 25.3845771,0 L45.6152728,0 C46.3287808,0 46.9107143,1.44642344 46.9107143,3.22033898 C46.9215413,4.99425452 46.3287808,6.44067797 45.6152728,6.44067797 Z" id="Shape" fill="#F4BD4F" fill-rule="nonzero"></path>
                            <path d="M35.2215236,21.9095798 L53.7346586,21.9095798 C54.6010909,21.9095798 55.2152707,22.3154693 55.5771981,23.104699 C55.928158,23.8713793 55.840418,24.6493343 55.2810757,25.2243445 C54.9191483,25.5851352 54.3378709,25.9233765 53.8553011,25.9233765 C41.4291269,25.9572006 29.0029527,25.9572006 16.5877461,25.9572006 C15.6116388,25.9572006 14.5587591,25.0213997 14.5803571,23.9164781 C14.5916616,22.913029 15.5458339,21.8983051 16.6096811,21.8983051 C22.8172844,21.9321292 29.0248877,21.9095798 35.2215236,21.9095798 Z M26.3488185,53.8621073 C26.4804284,55.2037978 26.6230059,56.556763 26.7655833,57.9661017 L16.5000061,57.9661017 C15.6774438,57.9661017 15.1181015,57.5376627 14.7781091,56.7935319 C14.4381167,56.0268516 14.5477916,55.3165449 15.041329,54.651337 C15.4580939,54.0876015 16.0503387,53.8508326 16.7083885,53.8395579 C19.8670277,53.8170085 23.0256668,53.8282832 26.1733385,53.8282832 C26.2172085,53.8282832 26.272046,53.8395579 26.3488185,53.8621073 L26.3488185,53.8621073 Z M26.3268835,37.8858436 C26.2610785,39.2613582 26.206241,40.6030486 26.140436,41.9785632 C25.9978585,41.9898379 25.8443136,42.0011126 25.6798011,42.0011126 C22.6747069,42.0011126 19.6586453,42.0123873 16.6535511,42.0011126 C15.4580939,41.9898379 14.7781091,41.2457071 14.6245641,40.2197085 C14.4710191,39.1711605 14.9864915,38.257909 16.0832412,37.9196677 C16.1929162,37.8858436 16.3025912,37.8745689 16.4122661,37.8745689 L26.1733385,37.8745689 C26.2172085,37.8745689 26.272046,37.8858436 26.3268835,37.8858436 L26.3268835,37.8858436 Z" id="Shape" fill="url(#linearGradient-5)" fill-rule="nonzero"></path>
                        </g>
                        <g id="Group-2" transform="translate(0.000000, 28.000000)">
                            <g id="Path-2">
                                <mask id="mask-7" fill="white">
                                    <use xlink:href="#path-6"></use>
                                </mask>
                                <use id="Mask" fill="#F4BD4E" fill-rule="nonzero" xlink:href="#path-6"></use>
                                <path d="M7.37358398,-25.4320217 C-4.61606445,10.8553967 -0.454182408,29.8265286 19.8592301,31.4813739 C50.3293489,33.9636418 75.4341797,69.3579935 70.9666992,81.1638243 C67.9883789,89.0343782 33.7800293,76.4058927 -31.6583496,43.2783679 L7.37358398,-25.4320217 Z" fill="url(#linearGradient-8)" fill-rule="nonzero" mask="url(#mask-7)"></path>
                                <path d="M27.773584,-24.1393388 C15.7839355,12.1480797 19.9458176,31.1192115 40.2592301,32.7740568 C70.7293489,35.2563247 95.8341797,70.6506764 91.3666992,82.4565072 C88.3883789,90.3270611 54.1800293,77.6985756 -11.2583496,44.5710509 L27.773584,-24.1393388 Z" fill="url(#linearGradient-8)" fill-rule="nonzero" mask="url(#mask-7)" transform="translate(40.312737, 30.291789) scale(-1, 1) translate(-40.312737, -30.291789) "></path>
                            </g>
                        </g>
                    </g>
                </g>
                <path d="M-60.2920422,19.0687926 C-44.1513611,9.63562239 26.2316484,16.1703802 61.6204329,67.6038718 C85.2129559,101.892866 131.767418,110.679812 201.283818,93.9647093 L189.491822,179.586245 L-37.2369731,107.81268 C-63.3674732,54.9388686 -71.0524962,25.3575728 -60.2920422,19.0687926 Z" id="Path-3" fill="#FFFFFF" fill-rule="nonzero" opacity="0.0962611607" mask="url(#mask-3)"></path>
                <mask id="mask-10" fill="white">
                    <use xlink:href="#path-9"></use>
                </mask>
                <g id="Mask" fill-rule="nonzero"></g>
            </g>
        </g>
    </g>
</svg>